<?xml version="1.0" encoding="UTF-8"?>
<!DOCTYPE svg PUBLIC "-//W3C//DTD SVG 1.1//EN" "http://www.w3.org/Graphics/SVG/1.1/DTD/svg11.dtd">
<!-- Creator: CorelDRAW 2017 -->
<svg xmlns="http://www.w3.org/2000/svg" xml:space="preserve" width="35mm" height="35mm" version="1.1" style="shape-rendering:geometricPrecision; text-rendering:geometricPrecision; image-rendering:optimizeQuality; fill-rule:evenodd; clip-rule:evenodd"
viewBox="0 0 3500 3500"
 xmlns:xlink="http://www.w3.org/1999/xlink">
 <defs>
  <style type="text/css">
   <![CDATA[
    .fil0 {fill:#DE7008}
    .fil1 {fill:#0A214F}
    .fil2 {fill:#0A214F;fill-rule:nonzero}
   ]]>
  </style>
 </defs>
 <g id="Katman_x0020_1">
  <metadata id="CorelCorpID_0Corel-Layer"/>
  <g id="_3097966989680">
   <path class="fil0" d="M837 869l180 189c31,49 18,99 -7,127l-211 215c-49,54 -128,21 -126,-42l33 -394c23,-106 74,-132 131,-95z"/>
   <path class="fil0" d="M1096 1274c-47,33 -119,101 -215,202 -87,96 -47,160 116,148l354 -11c177,5 211,-86 108,-173 -66,-61 -132,-115 -197,-161 -58,-41 -114,-43 -167,-5z"/>
   <path class="fil0" d="M1006 846c30,37 70,74 120,111 40,35 80,41 139,0 73,-55 135,-112 187,-171 32,-72 11,-105 -61,-101 -53,-3 -149,2 -290,16 -136,29 -167,78 -95,145z"/>
   <path class="fil0" d="M1595 831c-82,43 -159,100 -231,171 -39,48 -41,92 -5,134 88,83 161,157 220,223 80,70 166,13 164,-93l-12 -362c-9,-88 -55,-113 -136,-73z"/>
   <path class="fil0" d="M1875 886c-13,78 -9,229 -7,295 0,136 97,189 159,124l164 -169c39,-39 41,-81 6,-127 -59,-67 -116,-120 -170,-157 -90,-59 -144,-38 -153,34z"/>
   <path class="fil0" d="M2214 1320c-46,39 -86,76 -121,104 -115,116 -97,174 49,184l444 5c107,-23 136,-74 89,-155 -96,-95 -173,-163 -229,-204 -78,-52 -155,-32 -231,65z"/>
   <path class="fil0" d="M2662 898c-51,44 -93,89 -125,137 -24,29 -26,63 -6,103 51,65 104,124 161,178 45,63 113,55 129,-28 -3,-96 -20,-202 -23,-297 -17,-118 -63,-148 -136,-93z"/>
   <path class="fil0" d="M2185 673c72,1 176,8 310,21 96,18 127,52 92,101 -33,39 -81,86 -146,140 -59,44 -93,39 -141,0 -105,-78 -165,-136 -180,-176 -22,-56 0,-85 66,-86z"/>
   <path class="fil0" d="M598 966l-33 357c-15,84 -66,109 -110,55l-97 -145c-14,-29 -7,-62 21,-99l151 -183c37,-27 60,-22 67,15z"/>
   <path class="fil0" d="M483 842c-70,75 -120,142 -151,199 -42,18 -58,1 -51,-49 17,-85 66,-145 147,-179 62,-19 80,-10 54,29z"/>
   <path class="fil0" d="M273 1064l7 116c-39,49 -77,119 -115,209 -9,27 -23,28 -21,10 19,-174 62,-285 129,-334z"/>
   <path class="fil0" d="M230 1341l-74 164c-30,66 -3,124 41,125l144 0c60,2 94,-63 74,-108l-108 -183c-27,-32 -53,-31 -77,2z"/>
   <path class="fil0" d="M2893 926c-6,50 -3,83 1,114 0,26 9,102 25,243 7,72 89,114 130,41l80 -155c26,-44 18,-88 -25,-132 -33,-54 -85,-104 -151,-148 -33,-21 -63,-7 -61,37z"/>
   <path class="fil0" d="M3079 776l102 50c41,10 69,49 65,65l-5 83c-3,49 -32,57 -53,20 -43,-49 -90,-99 -139,-152 -26,-39 -33,-86 30,-67z"/>
   <path class="fil0" d="M3300 1056l0 108c42,67 78,141 108,223 6,18 24,26 20,-2 -25,-181 -68,-291 -128,-329z"/>
   <path class="fil0" d="M3090 1434c29,-53 69,-104 121,-152 30,-31 62,-29 93,5 39,69 73,134 100,194 19,57 4,89 -46,96 -9,5 -74,2 -193,-10 -74,-3 -126,-75 -76,-134z"/>
   <path class="fil0" d="M3083 704c-27,-14 -62,-41 -105,-83 -19,-22 -7,-59 36,-34 32,33 60,65 84,96 21,20 -1,29 -15,21z"/>
   <path class="fil0" d="M2778 392c34,16 73,45 117,88 10,10 10,24 1,40 -8,12 -17,22 -29,30 -12,10 -25,12 -38,7 -33,-20 -61,-54 -83,-102 -11,-32 -19,-58 -25,-77 -4,-14 3,-22 13,-15l45 29z"/>
   <path class="fil0" d="M2684 449c7,35 -45,55 -90,17 -37,-36 -108,-111 -161,-141 -42,-27 -34,-58 25,-68 87,-14 150,24 189,113 5,35 18,62 38,79z"/>
   <path class="fil0" d="M2515 577c37,-6 43,-23 18,-51l-176 -134c-64,-34 -90,-37 -134,-28 -46,20 -89,44 -130,72 -54,36 -49,90 20,104 118,18 252,30 402,36z"/>
   <path class="fil0" d="M2124 316c-39,34 -84,63 -133,88 -51,23 -110,5 -126,-34 -22,-65 -29,-119 -21,-161 7,-43 36,-58 87,-44l174 72c40,24 46,50 20,80z"/>
   <path class="fil0" d="M2124 114l-38 0c-13,-2 -13,3 -4,11 56,44 135,72 237,93 38,10 71,-55 5,-55 -59,-8 -121,-18 -200,-49z"/>
   <path class="fil0" d="M1714 161l2 187c2,36 -52,50 -89,34 -43,-21 -102,-55 -179,-103 -36,-21 -34,-47 5,-77 103,-47 169,-70 200,-70 27,-11 47,-2 61,28z"/>
   <path class="fil0" d="M1447 138c-63,45 -132,74 -207,86 -51,8 -63,-32 -41,-46 45,-25 126,-47 243,-64 28,-4 29,3 5,23z"/>
   <path class="fil0" d="M1165 288c-108,61 -194,129 -256,197 -85,76 -139,55 -82,-60 80,-118 177,-181 289,-187 69,-5 89,28 49,51z"/>
   <path class="fil0" d="M1198 363l-182 152c-44,40 -45,60 -2,59 195,-8 339,-22 429,-41 62,-7 71,-59 30,-95 -47,-32 -98,-62 -161,-90 -43,-13 -82,-8 -115,15z"/>
   <path class="fil0" d="M778 424c-35,90 -62,139 -95,168 -31,28 -100,-35 -71,-68 36,-39 86,-76 149,-113 20,-14 25,-9 16,13z"/>
   <path class="fil0" d="M513 625c-33,28 -61,58 -84,90 -30,42 -23,50 19,22 25,-12 54,-34 87,-67 26,-30 -1,-63 -22,-45z"/>
   <polygon class="fil1" points="1146,1882 1358,1882 1358,2009 1146,2009 "/>
   <polygon class="fil1" points="194,2085 377,2085 377,2384 623,2384 623,2085 832,2085 832,2843 622,2843 622,2501 377,2501 377,2843 195,2843 "/>
   <polygon class="fil1" points="1622,2085 2141,2085 2141,2198 1982,2198 1982,2843 1767,2843 1767,2201 1622,2201 "/>
   <polygon class="fil1" points="2396,2085 2608,2085 2608,2843 2396,2843 "/>
   <polygon class="fil1" points="1146,2085 1358,2085 1358,2843 1146,2843 "/>
   <polygon class="fil1" points="2396,1882 2608,1882 2608,2009 2396,2009 "/>
   <polygon class="fil1" points="2858,2085 3378,2085 3378,2198 3218,2198 3218,2843 3004,2843 3004,2201 2858,2201 "/>
   <path class="fil2" d="M343 3020l55 0 0 49 -55 0 0 -49zm-90 0l55 0 0 49 -55 0 0 -49zm-59 243l0 -167 54 0 0 165c0,57 30,88 78,88 48,0 77,-29 77,-86l0 -167 54 0 0 165c0,92 -52,139 -133,139 -80,0 -131,-46 -131,-136z"/>
   <polygon class="fil2" points="543,3095 592,3095 754,3305 754,3095 807,3095 807,3399 762,3399 595,3183 595,3399 543,3399 "/>
   <polygon class="fil2" points="1016,3095 1075,3095 1165,3327 1256,3095 1313,3095 1188,3399 1141,3399 "/>
   <polygon class="fil2" points="1377,3095 1602,3095 1602,3143 1430,3143 1430,3222 1582,3222 1582,3270 1430,3270 1430,3351 1604,3351 1604,3399 1377,3399 "/>
   <path class="fil2" d="M1809 3246c38,0 62,-20 62,-51l0 -1c0,-33 -23,-50 -63,-50l-78 0 0 102 78 0zm-131 -150l135 0c38,0 68,11 88,30 16,16 25,39 25,65l0 1c0,50 -30,80 -72,92l82 115 -63 0 -75 -106 -67 0 0 106 -53 0 0 -303z"/>
   <path class="fil2" d="M1984 3351l31 -37c28,24 57,38 93,38 32,0 52,-15 52,-37l0 -1c0,-21 -12,-33 -67,-45 -63,-15 -98,-34 -98,-88l0 -1c0,-51 42,-86 101,-86 43,0 77,13 107,37l-28 39c-27,-20 -53,-30 -80,-30 -30,0 -48,16 -48,35l0 1c0,23 13,33 70,46 62,15 94,37 94,86l0 1c0,55 -43,88 -105,88 -45,0 -88,-16 -123,-47z"/>
   <path class="fil2" d="M2292 3095l54 0 0 303 -54 0 0 -303zm-1 -76l57 0 0 49 -57 0 0 -49z"/>
   <path class="fil2" d="M897 3095l54 0 0 303 -54 0 0 -303zm-1 -76l56 0 0 49 -56 0 0 -49z"/>
   <path class="fil2" d="M3322 3095l54 0 0 303 -54 0 0 -303zm-1 -76l56 0 0 49 -56 0 0 -49z"/>
   <polygon class="fil2" points="2512,3145 2416,3145 2416,3095 2662,3095 2662,3145 2566,3145 2566,3399 2512,3399 "/>
   <polygon class="fil2" points="2730,3095 2955,3095 2955,3143 2783,3143 2783,3222 2935,3222 2935,3270 2783,3270 2783,3351 2957,3351 2957,3399 2730,3399 "/>
   <path class="fil2" d="M3015 3351l31 -37c28,24 57,38 93,38 32,0 52,-15 52,-37l0 -1c0,-21 -12,-33 -67,-45 -63,-15 -98,-34 -98,-88l0 -1c0,-51 42,-86 101,-86 43,0 77,13 107,37l-28 39c-27,-20 -53,-30 -80,-30 -30,0 -48,16 -48,35l0 1c0,23 13,33 70,46 62,15 94,37 94,86l0 1c0,55 -43,88 -105,88 -45,0 -88,-16 -123,-47z"/>
  </g>
 </g>
</svg>
